<?xml version="1.0" encoding="iso-8859-1"?>
<!-- Generator: Adobe Illustrator 16.0.0, SVG Export Plug-In . SVG Version: 6.00 Build 0)  -->
<!DOCTYPE svg PUBLIC "-//W3C//DTD SVG 1.1//EN" "http://www.w3.org/Graphics/SVG/1.1/DTD/svg11.dtd">
<svg version="1.1" id="Capa_1" xmlns="http://www.w3.org/2000/svg" xmlns:xlink="http://www.w3.org/1999/xlink" x="0px" y="0px"
	 width="72.773px" height="72.773px" viewBox="0 0 72.773 72.773" style="enable-background:new 0 0 72.773 72.773;"
	 xml:space="preserve">
<g>
	<path d="M62.84,45.82V15.274L36.384,0L9.933,15.274V45.82l25.283,14.599v8.982L11.685,55.813l-1.168,2.023l25.867,14.937
		l25.872-14.937l-1.168-2.023L37.552,69.401v-8.982L62.84,45.82z M37.552,3.371l21.915,12.65L37.552,28.574V3.371z M35.216,28.574
		L13.303,16.021L35.216,3.368V28.574z M34.034,30.59L12.269,43.058V18.121L34.034,30.59z M60.504,18.119v24.944L38.733,30.59
		L60.504,18.119z M13.381,45.11l23.006-13.178L59.396,45.11L37.555,57.718V42.095h-2.336v15.623L13.381,45.11z"/>
</g>
<g>
</g>
<g>
</g>
<g>
</g>
<g>
</g>
<g>
</g>
<g>
</g>
<g>
</g>
<g>
</g>
<g>
</g>
<g>
</g>
<g>
</g>
<g>
</g>
<g>
</g>
<g>
</g>
<g>
</g>
</svg>
