<svg xmlns="http://www.w3.org/2000/svg" enable-background="new 0 0 512 512" viewBox="0 0 512 512">
<linearGradient id="a" x1="73.704" x2="507.636" y1="53.674" y2="487.606" gradientTransform="matrix(1 0 0 -1 0 512)" gradientUnits="userSpaceOnUse"><stop offset="0" stop-color="#da1467"/><stop offset="1" stop-color="#ff992e"/></linearGradient><path fill="url(#a)" d="M358.535,130.951V62.65c0-18.004,17.693-31.682,35.545-25.866c11.101,3.61,18.812,14.656,18.812,26.906v45.553l28.655-28.71V29.674c0-17.158,14.557-30.908,31.991-29.584c15.367,1.148,27.398,14.6,27.398,30.623c-2.285,18.745,9.941,64.692-29.256,104.229c-24.827,24.992-41.451,41.616-52.662,52.718h-54.794C368.426,169.443,366.844,149.268,358.535,130.951z M320.419,167.699c0,36.694-29.858,66.498-66.551,66.498c-9.351,0-18.264-1.915-26.358-5.413c13.507,10.937,30.734,17.499,49.381,17.499c43.365,0,78.638-35.271,78.638-78.583c0-43.365-35.272-78.637-78.638-78.637c-18.703,0-35.983,6.562-49.49,17.609c8.148-3.555,17.061-5.524,26.467-5.524C290.561,101.148,320.419,131.006,320.419,167.699z M246.988,178.957c6.235,0,11.308-5.063,11.308-11.287c0-6.235-5.073-11.308-11.308-11.308c-6.224,0-11.29,5.073-11.29,11.308C235.699,173.895,240.764,178.957,246.988,178.957z M198.307,167.699c0-30.678,24.936-55.614,55.56-55.614c30.678,0,55.614,24.936,55.614,55.614c0,30.624-24.936,55.561-55.614,55.561C223.243,223.261,198.307,198.324,198.307,167.699z M224.762,167.67c0,12.253,9.971,22.224,22.227,22.224c12.266,0,22.245-9.971,22.245-22.224c0-12.266-9.978-22.245-22.245-22.245C234.732,145.425,224.762,155.404,224.762,167.67z M69.195,280.844h18.647v48.287c0,3.008,2.461,5.469,5.469,5.469c12.96,0,25.155-6.343,34.288-17.827c7.773-9.703,12.463-22.309,13.459-35.928h12.68c-0.807-29.245,2.003-35.569-3.172-45.497c-15.952,24.541-49.442,29.142-71.364,10.171c-10.323,9.008-24.241,13.355-39.046,11.101C42.619,270.344,54.704,280.844,69.195,280.844z M331.957,486.952c10.784-1.436,52.091,7.628,89.136-26.468c13.125-12.085,22.64-27.398,27.616-44.294c4.023-13.726-6.664-27.178-20.78-27.178h-25.374c28.655-16.297,45.116-40.686,48.998-72.895c1.595-13.104-8.428-24.444-21.382-24.444h-24.608c24.882-14.109,40.029-36.858,45.061-67.865c2.202-13.449-8.18-25.209-21.273-25.209h-68.412c-12.424,34.049-45.488,58.622-84.051,58.622c-49.052,0-88.973-39.592-89.52-88.481c-20.617-7.108-41.233-15.148-61.74-23.953c1.527,6.311,1.541,13.277,0.383,19.414c14.492,4.922,25.702,16.57,30.077,31.17c18.21,10.663,30.46,30.405,30.46,52.989v32.484h19.413v48.287c0,3.008,2.461,5.469,5.469,5.469c12.905,0,25.101-6.343,34.288-17.827c7.773-9.703,12.421-22.309,13.407-35.928h4.476c25.921,0,47.029,21.108,47.029,47.03c0,25.889-21.002,46.975-47.029,46.975c0,0-0.055,0-0.109,0l-79.784-0.183c-0.781-13.023-5.165-25.135-12.579-34.378c-8.531-10.718-19.96-16.624-32.046-16.624c-3.008,0-5.469,2.407-5.469,5.469v45.418l-60.481-0.139c-0.055,0-0.055,0-0.109,0c-19.832,0-34.327,19.261-28.163,38.335c11.922,37.132,42.545,63.926,79.512,71.802c-7.273-11.155-11.922-24.553-14.054-40.358c-0.383-3.008,1.695-5.743,4.702-6.124c3.008-0.383,5.742,1.695,6.126,4.702c5.304,39.647,28.108,61.904,71.364,69.232c-13.507-16.023-17.773-39.264-12.851-69.395c0.437-2.679,2.734-4.593,5.413-4.593h0.985c2.734,0,5.031,2.023,5.413,4.758c5.25,39.647,28.053,61.904,71.309,69.232c-13.453-16.023-17.773-39.264-12.796-69.395c0.437-2.679,2.734-4.593,5.413-4.593h0.929c2.734,0,5.085,2.023,5.413,4.758c5.25,39.647,28.053,61.904,71.309,69.232c-13.453-16.023-17.773-39.264-12.796-69.395c0.492-3.008,3.281-5.031,6.289-4.539c3.008,0.492,5.031,3.336,4.539,6.289C328.293,461.25,328.567,475.413,331.957,486.952z M79.147,228.783c6.453,10.499,18.101,17.499,31.28,17.499c14.327,0,26.741-8.203,32.811-20.125c-11.208-8.965-22.225-5.731-28.655-6.398c-9.078,0-16.406-7.382-16.406-16.406c0-9.078,7.327-16.406,16.406-16.406c7.659,0.254,15.649-0.907,26.522,2.133c-6.398-9.625-17.226-16.078-29.53-16.461c2.789-5.25,4.32-11.211,4.32-17.335c0-20.343-16.515-36.858-36.749-36.858c-20.288,0-36.803,16.515-36.803,36.858c0,6.124,1.531,12.085,4.375,17.335c-19.851,0.601-35.764,16.897-35.764,36.858c0,20.288,16.515,36.803,36.858,36.803C61.047,246.283,72.64,239.283,79.147,228.783z M125.154,197.881h-10.587c-3.02,0-5.469,2.449-5.469,5.469s2.449,5.468,5.469,5.468h10.587c21.792,0,39.521,17.73,39.521,39.524v55.048c0,27.824,22.638,50.461,50.461,50.461c3.02,0,5.469-2.449,5.469-5.469s-2.449-5.469-5.469-5.469c-21.794,0-39.524-17.73-39.524-39.524v-55.048C175.612,220.519,152.977,197.881,125.154,197.881z"/></svg>